<svg xmlns="http://www.w3.org/2000/svg" width="512" height="485.877" viewBox="0 0 512 485.877">
  <g id="bride" transform="translate(0 -13.061)">
    <g id="Group_452" data-name="Group 452">
      <g id="Group_451" data-name="Group 451">
        <path id="Path_232" data-name="Path 232" d="M349.266,240.4a7.51,7.51,0,0,0-7.51,7.51v8.676a7.51,7.51,0,0,0,15.02,0v-8.676A7.51,7.51,0,0,0,349.266,240.4Z" fill="#eaeaea"/>
      </g>
    </g>
    <g id="Group_454" data-name="Group 454">
      <g id="Group_453" data-name="Group 453">
        <path id="Path_233" data-name="Path 233" d="M407.841,240.4a7.511,7.511,0,0,0-7.51,7.51v8.676a7.51,7.51,0,0,0,15.02,0v-8.676A7.51,7.51,0,0,0,407.841,240.4Z" fill="#eaeaea"/>
      </g>
    </g>
    <g id="Group_456" data-name="Group 456">
      <g id="Group_455" data-name="Group 455">
        <path id="Path_234" data-name="Path 234" d="M399.082,283.635a7.511,7.511,0,0,0-10.483,1.71c-1.475,2.05-5.154,4.118-10.046,4.118s-8.571-2.068-10.046-4.118a7.511,7.511,0,0,0-12.193,8.773c4.671,6.491,12.985,10.366,22.239,10.366s17.568-3.875,22.239-10.366A7.51,7.51,0,0,0,399.082,283.635Z" fill="#eaeaea"/>
      </g>
    </g>
    <g id="Group_458" data-name="Group 458">
      <g id="Group_457" data-name="Group 457">
        <path id="Path_235" data-name="Path 235" d="M108.99,251.769a7.51,7.51,0,0,0-7.51,7.51v8.4a7.51,7.51,0,1,0,15.02,0v-8.4A7.51,7.51,0,0,0,108.99,251.769Z" fill="#eaeaea"/>
      </g>
    </g>
    <g id="Group_460" data-name="Group 460">
      <g id="Group_459" data-name="Group 459">
        <path id="Path_236" data-name="Path 236" d="M157.361,293.677a7.51,7.51,0,0,0-10.482,1.71c-1.393,1.935-4.88,3.888-9.533,3.888s-8.14-1.953-9.533-3.888a7.511,7.511,0,0,0-12.193,8.773c4.567,6.347,12.688,10.135,21.725,10.135s17.159-3.789,21.726-10.135A7.511,7.511,0,0,0,157.361,293.677Z" fill="#eaeaea"/>
      </g>
    </g>
    <g id="Group_462" data-name="Group 462">
      <g id="Group_461" data-name="Group 461">
        <path id="Path_237" data-name="Path 237" d="M295.476,404.379a7.51,7.51,0,0,0-7.51,7.51v14.649a7.51,7.51,0,0,0,15.02,0V411.889A7.509,7.509,0,0,0,295.476,404.379Z" fill="#eaeaea"/>
      </g>
    </g>
    <g id="Group_464" data-name="Group 464">
      <g id="Group_463" data-name="Group 463">
        <path id="Path_238" data-name="Path 238" d="M288.684,13.061a48.706,48.706,0,0,0-32.719,12.5,49.045,49.045,0,0,0-81.752,36.535c0,23.8,13.884,46.7,40.152,66.2a186.255,186.255,0,0,0,38.862,22.011,7.517,7.517,0,0,0,5.474,0A186.282,186.282,0,0,0,297.563,128.3c26.269-19.509,40.154-42.4,40.154-66.2A49.088,49.088,0,0,0,288.684,13.061Zm-32.721,122.1c-12.889-5.708-66.731-32.018-66.731-73.061a34.014,34.014,0,0,1,60.817-20.94,7.509,7.509,0,0,0,11.828,0A34.014,34.014,0,0,1,322.694,62.1C322.694,103.144,268.84,129.455,255.963,135.156Z" fill="#eaeaea"/>
      </g>
    </g>
    <g id="Group_466" data-name="Group 466">
      <g id="Group_465" data-name="Group 465">
        <path id="Path_239" data-name="Path 239" d="M468.421,346.269,420.946,332.29c-.225-.068-.455-.127-.689-.175l-7.449-1.5a3.819,3.819,0,0,1-3.057-3.733V323.3A75.816,75.816,0,0,0,450.7,276.744h5.741a18.391,18.391,0,0,0,18.37-18.37V246.34a18.393,18.393,0,0,0-6.4-13.916V219.178a78.386,78.386,0,0,0-78.3-78.3H366.99a78.386,78.386,0,0,0-78.3,78.3v13.246a18.393,18.393,0,0,0-6.4,13.916v12.034a18.391,18.391,0,0,0,18.37,18.37h5.741a75.833,75.833,0,0,0,39.6,45.947v4.465a3.82,3.82,0,0,1-3.057,3.734l-5.984,1.2-.016,0-.1.02c-.235.047-.465.107-.691.175l-47.473,13.978a60.977,60.977,0,0,0-37.23,31.4A56.994,56.994,0,0,0,239.63,364.18l18.3-5.8a24.014,24.014,0,0,0,16.723-24.3c-1.128-19.541-5.882-59.123-25.047-104.665-23.81-56.579-57.938-78.25-83.323-86.366a35.615,35.615,0,0,0-57.869,0C83.028,151.167,48.9,172.838,25.09,229.416,5.923,274.958,1.169,314.54.041,334.08a24.013,24.013,0,0,0,16.723,24.3l18.3,5.8a56.518,56.518,0,0,0-20.5,43.344v83.9a7.51,7.51,0,0,0,7.51,7.51l482.415-.049a7.51,7.51,0,0,0,7.51-7.51v-86.85A61.073,61.073,0,0,0,468.421,346.269ZM235.759,235.242c18.293,43.47,22.824,81.127,23.9,99.7a9,9,0,0,1-6.262,9.119l-31.828,10.08q-.89-.3-1.783-.558l-43.5-12.809c-.211-.063-.425-.115-.642-.159l-6.818-1.371a2.857,2.857,0,0,1-2.288-2.793v-3.446c.289-.126.567-.271.854-.4.786-.355,1.567-.715,2.338-1.1.381-.189.757-.386,1.134-.582.776-.4,1.544-.811,2.3-1.238.328-.185.653-.373.978-.563q1.24-.723,2.45-1.494c.235-.15.47-.3.7-.451q1.41-.92,2.773-1.9c.089-.064.18-.126.269-.191a73.57,73.57,0,0,0,27.04-37.655h5.537A18.045,18.045,0,0,0,230.94,269.41V257.759c0-.553-.034-1.1-.083-1.638-.012-.131-.025-.261-.039-.391-.06-.532-.136-1.06-.241-1.578-.007-.034-.017-.067-.024-.1-.1-.491-.231-.973-.373-1.449-.036-.12-.072-.24-.11-.359-.159-.495-.334-.982-.534-1.457-.022-.052-.047-.1-.069-.153-.188-.434-.394-.857-.614-1.273-.056-.106-.111-.212-.17-.317-.248-.447-.511-.884-.794-1.306-.041-.061-.085-.118-.127-.178q-.389-.562-.818-1.093c-.072-.089-.142-.179-.216-.267-.326-.389-.665-.765-1.022-1.124-.06-.061-.124-.118-.185-.178q-.48-.47-.993-.9c-.083-.07-.164-.141-.248-.21q-.59-.48-1.219-.912c-.079-.054-.161-.1-.24-.156-.192-.127-.382-.257-.579-.377,0-1.247-.041-2.488-.1-3.727-.02-.45-.049-.9-.076-1.344q-.072-1.156-.176-2.306c-.052-.59-.1-1.181-.165-1.767-.023-.2-.053-.4-.077-.608a84.78,84.78,0,0,0-28.464-54l0,0q-2.16-1.892-4.441-3.641c-.073-.056-.144-.115-.218-.171-.467-.354-.944-.7-1.419-1.04-.558-.406-1.119-.808-1.687-1.2-.387-.267-.774-.532-1.165-.792q-1.26-.84-2.552-1.638c-.153-.094-.3-.193-.455-.286q-1.628-.988-3.307-1.9c-.172-.094-.346-.183-.518-.276q-1.441-.775-2.917-1.5c-.229-.112-.458-.224-.688-.334-.279-.133-.553-.275-.834-.406q.033-.77.034-1.538c0-.661-.021-1.317-.057-1.97,0-.031,0-.062,0-.093C193.436,171.52,217.609,192.112,235.759,235.242ZM165.7,275.189a7.51,7.51,0,0,0,7.51-7.51v-8.4a7.471,7.471,0,0,0-1.524-4.522h23.938v11.018q0,1.559-.086,3.121c0,.068-.012.135-.015.2-.057.984-.135,1.968-.242,2.952l-.009.071q-.168,1.524-.415,3.043c-.008.051-.019.1-.027.152q-.238,1.437-.548,2.865c-.091.416-.188.83-.288,1.244q-.213.883-.453,1.758c-.11.4-.223.8-.342,1.2s-.24.8-.368,1.2c-.139.433-.288.861-.437,1.289q-.333.954-.7,1.894c-.1.261-.2.521-.308.78q-.968,2.387-2.137,4.674l-.062.121A58.978,58.978,0,0,1,173,311.828c-.071.055-.141.112-.212.166q-.616.475-1.248.933c-.234.17-.471.337-.707.5q-.825.584-1.672,1.138c-.387.253-.774.505-1.167.749-.3.187-.6.37-.907.552q-.8.475-1.613.929-.33.183-.661.363-.93.5-1.88.964c-.223.11-.448.218-.673.325-.726.345-1.458.681-2.2,1-.085.036-.171.069-.257.1-.676.283-1.36.551-2.048.809q-.381.143-.765.281c-.457.164-.919.315-1.381.468-.419.138-.837.281-1.258.41s-.864.248-1.3.369q-1.1.307-2.21.573c-.495.118-.988.239-1.487.344-.4.085-.808.155-1.213.232-.487.092-.973.183-1.464.262-.4.064-.793.12-1.19.176q-.778.109-1.564.2c-.372.042-.744.082-1.117.117-.59.055-1.184.1-1.78.136-.312.02-.623.044-.936.059-.911.043-1.826.07-2.748.07-.947,0-1.889-.027-2.825-.072-.286-.014-.571-.039-.856-.057-.656-.041-1.312-.087-1.962-.15-.318-.031-.635-.07-.952-.106-.622-.07-1.241-.147-1.857-.237-.311-.045-.621-.1-.931-.145q-.942-.153-1.875-.336c-.284-.056-.568-.112-.851-.172q-.99-.21-1.966-.455c-.238-.059-.476-.116-.713-.178-.735-.193-1.463-.4-2.186-.622-.146-.045-.294-.085-.44-.131a57.926,57.926,0,0,1-10.2-4.313l-.307-.168q-1.083-.594-2.137-1.23c-.177-.108-.351-.22-.527-.329-.478-.3-.95-.6-1.419-.911-.366-.243-.731-.487-1.091-.738-.131-.09-.259-.185-.389-.276a59.141,59.141,0,0,1-20.718-26.288l-.082-.207q-.557-1.416-1.035-2.865c-.054-.163-.113-.324-.165-.488-.135-.42-.261-.843-.387-1.266q-.169-.573-.328-1.153-.217-.791-.412-1.588c-.114-.467-.223-.935-.325-1.407q-.3-1.4-.538-2.81c-.011-.069-.026-.137-.037-.206q-.243-1.491-.407-2.988c0-.041-.011-.081-.016-.122-.105-.969-.182-1.939-.238-2.909,0-.081-.014-.16-.018-.241q-.084-1.56-.085-3.118V253.7c.07-.029.136-.066.205-.1q.414-.177.814-.379c.107-.054.214-.106.319-.162.357-.191.707-.393,1.046-.614l.017-.012c.333-.218.653-.453.967-.7.094-.073.185-.15.277-.226q.35-.288.68-.6c.086-.081.173-.16.258-.243a14.058,14.058,0,0,0,1.591-1.862c.07-.1.135-.2.2-.3q.258-.381.492-.781c.061-.1.124-.208.183-.315.2-.365.393-.737.563-1.123a7.486,7.486,0,0,0,.387-1.1l5.537-20.785a2.67,2.67,0,0,1,4.308-1.348c26.874,22.7,48.353,29.851,63.066,31.358a7.478,7.478,0,0,0-1.787,4.856v8.4A7.506,7.506,0,0,0,165.7,275.189Zm44.641-2.773c.042-.454.061-.908.094-1.363.042-.591.094-1.179.122-1.774.057-1.169.089-2.338.089-3.5V254.757h2.267a3.008,3.008,0,0,1,3,3v11.651a3.008,3.008,0,0,1-3,3ZM117.091,159.879c.1-.529.225-1.051.369-1.564.028-.1.065-.2.1-.3.128-.43.267-.855.421-1.273.053-.143.109-.284.165-.426q.238-.6.512-1.188c.048-.1.1-.208.145-.311a20.635,20.635,0,0,1,37.1,0c.052.1.1.212.149.318.182.387.35.781.508,1.18.056.143.114.286.167.431.154.416.292.839.419,1.267.031.1.067.2.1.308q.215.77.368,1.563c.009.045.014.09.023.135-.966-.238-1.936-.453-2.909-.656-.251-.052-.5-.1-.755-.15-1.16-.231-2.323-.443-3.492-.625-.091-.014-.181-.032-.273-.046-1.248-.19-2.5-.344-3.759-.479-.246-.026-.491-.054-.737-.078q-1.86-.183-3.73-.285c-.225-.012-.45-.02-.675-.03-1.312-.06-2.627-.1-3.947-.1s-2.634.04-3.947.1c-.225.01-.451.018-.676.03q-1.87.1-3.73.285c-.247.024-.492.052-.738.078-1.257.134-2.51.288-3.758.479-.092.014-.183.032-.275.046-1.167.182-2.329.393-3.487.624-.254.05-.508.1-.761.151-.972.2-1.941.418-2.906.656C117.077,159.969,117.082,159.923,117.091,159.879Zm-12.624,20.945c.146-.078.291-.16.438-.237q2.762-1.453,5.665-2.663c.22-.091.442-.177.663-.266q1.016-.411,2.049-.789c.46-.169.921-.331,1.383-.49q.827-.283,1.66-.549.738-.232,1.48-.45.827-.241,1.661-.461c.5-.132.993-.26,1.492-.38.573-.138,1.151-.266,1.729-.391.486-.1.972-.208,1.459-.3.609-.117,1.223-.22,1.838-.321.465-.077.93-.156,1.4-.223.656-.094,1.317-.171,1.979-.246.435-.05.868-.106,1.3-.148.739-.07,1.484-.119,2.23-.166.365-.023.728-.057,1.094-.074,1.113-.053,2.231-.083,3.357-.083s2.243.03,3.356.083c.367.017.732.051,1.1.074.744.047,1.487.1,2.224.166.438.042.873.1,1.309.149.66.075,1.319.152,1.973.246.469.067.935.147,1.4.224.613.1,1.225.2,1.832.32.49.094.977.2,1.465.3.577.124,1.152.251,1.723.389.5.121,1,.25,1.5.382q.831.221,1.654.459.745.218,1.487.452.831.263,1.653.547c.465.16.928.322,1.39.492.688.254,1.373.515,2.051.79.219.088.439.173.656.264q2.9,1.209,5.669,2.665c.145.076.287.156.431.233q1.13.6,2.233,1.25c.227.133.455.267.68.4q.982.588,1.941,1.21c.242.156.487.308.727.468.7.461,1.381.938,2.06,1.423.543.389,1.076.789,1.606,1.193.295.224.592.445.883.673q.843.663,1.664,1.353l.348.292a70.45,70.45,0,0,1,24.4,45.576c.039.346.084.69.117,1.038.048.489.084.98.121,1.471.047.621.088,1.245.118,1.87.011.232.022.464.031.7H166.293c-22.94,0-47.247-17.635-59.693-28.147-.363-.307-.739-.592-1.121-.866-.108-.077-.216-.151-.325-.226q-.459-.315-.933-.6c-.093-.056-.184-.114-.278-.168q-.6-.342-1.216-.636c-.093-.044-.188-.083-.281-.125q-.5-.227-1.013-.421c-.124-.047-.247-.094-.372-.138-.406-.144-.815-.276-1.23-.389-.027-.007-.053-.017-.08-.024-.438-.117-.882-.212-1.328-.295-.128-.024-.257-.044-.385-.065q-.526-.086-1.057-.14c-.113-.011-.226-.026-.339-.035q-.676-.056-1.356-.06l-.076,0c-.1,0-.193.01-.29.011-.289.005-.579.014-.869.033-.15.01-.3.024-.451.038-.27.025-.539.055-.809.093-.151.021-.3.042-.453.067-.285.047-.569.1-.852.164-.129.028-.258.052-.387.082-.41.1-.819.207-1.226.335a17.6,17.6,0,0,0-11.787,12.322L72.973,239.74h-5.44q.014-.348.031-.7c.03-.627.072-1.251.119-1.873.038-.49.073-.98.121-1.468.034-.35.079-.7.118-1.045a70.448,70.448,0,0,1,24.4-45.571l.347-.291q.824-.688,1.667-1.355c.287-.225.58-.443.87-.663.539-.41,1.08-.816,1.632-1.211.673-.481,1.353-.954,2.043-1.411.243-.161.491-.315.736-.473.638-.411,1.28-.814,1.932-1.2q.342-.205.687-.406C102.976,181.641,103.717,181.226,104.467,180.824ZM21.3,344.065a9,9,0,0,1-6.263-9.119c1.073-18.578,5.6-56.234,23.9-99.7,18.15-43.129,42.323-63.722,62.806-73.436,0,.031,0,.062,0,.093-.036.652-.057,1.309-.057,1.97q0,.768.034,1.538c-.28.13-.553.272-.832.4-.232.111-.463.225-.694.337q-1.47.719-2.907,1.491c-.176.1-.354.186-.529.282q-1.674.916-3.3,1.9c-.158.1-.312.2-.47.3q-1.284.792-2.536,1.627c-.394.262-.785.53-1.175.8q-.846.585-1.674,1.192c-.478.347-.959.692-1.43,1.049-.053.04-.1.083-.156.123a84.887,84.887,0,0,0-32.965,57.685c-.024.2-.055.4-.077.608-.064.587-.113,1.177-.165,1.767q-.1,1.15-.176,2.306c-.027.448-.056.9-.076,1.344-.057,1.238-.1,2.48-.1,3.727-.2.12-.387.25-.579.377-.08.053-.161.1-.24.156q-.63.431-1.219.912c-.084.068-.165.14-.248.21q-.513.434-.993.9c-.061.06-.125.117-.185.178-.357.36-.7.736-1.022,1.124-.073.088-.144.177-.216.267-.285.354-.559.717-.818,1.093-.041.06-.086.118-.127.178-.284.422-.546.859-.794,1.306-.058.1-.113.211-.17.317-.22.416-.427.839-.614,1.273-.022.051-.048.1-.069.153-.2.475-.375.962-.534,1.457-.038.119-.074.239-.11.359-.142.476-.27.957-.373,1.449-.007.034-.017.067-.024.1-.106.518-.181,1.045-.241,1.578-.015.13-.027.26-.039.391-.049.541-.083,1.085-.083,1.638v11.651a18.045,18.045,0,0,0,18.024,18.024h5.535c0,.016.011.031.016.047.146.469.314.929.469,1.394a72.817,72.817,0,0,0,37.636,42.876l.285.139c.4.192.8.4,1.2.586v4.226a2.858,2.858,0,0,1-2.291,2.794l-5.583,1.124c-.215.044-.428.1-.639.158l-43.5,12.8-.043.014q-.87.256-1.74.545Zm42.835-74.784c.027.58.078,1.154.119,1.73.034.468.054.936.1,1.4H61.777a3.008,3.008,0,0,1-3-3V257.76a3.008,3.008,0,0,1,3-3h2.268v11.018C64.045,266.942,64.077,268.111,64.134,269.281ZM245.109,483.918H224.424V413.08a17.726,17.726,0,0,0-3.451-10.493,50.715,50.715,0,0,0-79.765-2.244,4.983,4.983,0,0,1-7.725,0,50.714,50.714,0,0,0-79.764,2.244,17.725,17.725,0,0,0-3.451,10.494v13.458a7.51,7.51,0,1,0,15.02,0V413.081a2.61,2.61,0,0,1,.5-1.547,35.693,35.693,0,0,1,56.152-1.585,20,20,0,0,0,30.82,0,35.694,35.694,0,0,1,56.153,1.585,2.61,2.61,0,0,1,.495,1.546v70.838H65.288V461.483a7.51,7.51,0,1,0-15.02,0v22.435H29.585V407.523A41.453,41.453,0,0,1,57.2,368.629c.116-.041.231-.086.347-.126.206-.07.416-.131.624-.2.327-.105.654-.215.981-.311h0l43.18-12.715,5.26-1.057q.768-.154,1.509-.374c.168-.049.329-.114.494-.168.321-.105.644-.207.957-.329.194-.076.38-.167.57-.249.275-.119.552-.233.819-.364.2-.1.387-.21.581-.314.248-.134.5-.264.74-.409.2-.118.382-.249.572-.374.227-.149.456-.294.676-.453.189-.137.367-.285.55-.428.208-.164.419-.324.62-.5.179-.153.347-.317.519-.477.191-.178.384-.353.567-.538.167-.169.323-.347.483-.522.174-.191.349-.379.515-.577s.3-.375.443-.564.314-.4.461-.614.267-.4.4-.6.278-.428.407-.648.235-.421.349-.635.241-.45.352-.681.2-.441.3-.664.2-.47.294-.71.165-.459.242-.69.162-.489.233-.738.127-.472.185-.711.12-.506.171-.763.087-.485.125-.729c.04-.26.076-.521.105-.785.027-.247.047-.494.063-.744.009-.143.03-.283.036-.427.129.028.261.046.391.073.544.114,1.094.207,1.642.309.647.12,1.292.246,1.943.348s1.289.178,1.936.262c.563.073,1.124.155,1.69.215.732.078,1.471.13,2.209.186.491.037.981.085,1.473.112.77.043,1.546.059,2.321.078.471.011.941.033,1.412.036.135,0,.268.01.4.01.666,0,1.325-.033,1.987-.05.448-.012.9-.014,1.344-.034.828-.037,1.649-.1,2.47-.166.416-.033.832-.055,1.247-.1.842-.081,1.675-.188,2.508-.3.394-.052.789-.093,1.181-.151.881-.13,1.752-.287,2.622-.448.284-.053.571-.09.854-.146,0,.06.015.119.02.179.018.225.048.447.075.671.033.282.066.563.112.841.037.224.085.444.131.665.056.271.112.542.181.808.056.22.121.437.186.654.077.261.157.52.246.777.075.215.156.426.239.637.1.251.2.5.308.746.092.207.189.411.289.614.118.24.239.477.367.711q.163.3.337.589.205.344.424.676.186.283.382.559.232.324.479.637c.139.178.279.354.425.526.172.2.351.4.532.6.153.165.3.33.464.489.189.19.385.372.583.553.165.152.329.3.5.449.206.176.42.342.634.508.175.136.349.275.529.4.224.161.456.31.688.461.184.119.364.243.552.355.243.145.494.277.744.411.189.1.374.208.567.3.267.131.543.246.818.363.187.08.37.168.56.242.311.121.631.223.95.326.164.053.322.116.488.164.489.143.987.268,1.495.37l6.495,1.307,43.182,12.714q.813.238,1.61.511c.061.021.121.045.182.066a41.452,41.452,0,0,1,27.776,38.951v76.4ZM420.862,358.413,431.1,376.5,401.35,422.579Zm-38.164,22.8h-8.29l-2.932-5.08,7.078-6.462,7.077,6.461Zm1.917,44.776L381.3,436.9l-2.744,9.023-6.059-19.925,4.119-29.764h3.843Zm-26.091-73.438a78.715,78.715,0,0,0,13.943,2.338l-15.578,14.223a7.443,7.443,0,0,0-1.235,1.505l-6.22-20.454Zm-.26-15.6a18.768,18.768,0,0,0,2.744-8.932q1.078.258,2.166.483c.218.045.438.084.656.128q1.374.273,2.758.494c.225.036.449.077.675.111.993.149,1.991.271,2.99.381.329.036.656.074.986.106q1.452.139,2.91.222.525.03,1.053.054,1.482.066,2.966.075c.129,0,.256.01.386.01.192,0,.381-.013.573-.015,1.028-.007,2.056-.029,3.083-.078.244-.012.487-.03.731-.044q1.484-.086,2.963-.226c.157-.015.315-.026.472-.042,1.112-.114,2.22-.26,3.325-.424.172-.026.345-.049.517-.076,1.11-.172,2.215-.372,3.314-.593l.416-.085c.279-.058.559-.111.837-.172a18.775,18.775,0,0,0,3.048,8.889l-3.068.806a63.916,63.916,0,0,1-32.424,0Zm26.376,17.936a78.612,78.612,0,0,0,13.942-2.338l9.09-2.388-6.219,20.453a7.433,7.433,0,0,0-1.235-1.5Zm69.128-94.434c.055-.721.12-1.44.155-2.167q.09-1.834.093-3.667V242.991h2.356l.1,0a3.218,3.218,0,0,1,.642.07l.045.011a3.577,3.577,0,0,1,.406.134c.081.03.165.045.245.081h0a3.356,3.356,0,0,1,1.98,3.048v12.034a3.353,3.353,0,0,1-3.349,3.349h-2.763C453.717,261.3,453.735,260.875,453.768,260.451Zm-153.1,1.271h0a3.351,3.351,0,0,1-3.349-3.348V246.34a3.359,3.359,0,0,1,1.982-3.049,3.422,3.422,0,0,1,.6-.2c.035-.009.063-.019.1-.028a3.229,3.229,0,0,1,.642-.07l.094,0h2.356v11.626q0,1.831.093,3.667c.035.725.1,1.441.154,2.16.033.426.051.852.091,1.278h-2.763Zm12.086-56.983a7.438,7.438,0,0,0-.836.292c-.119.05-.231.112-.347.168-.146.07-.3.134-.436.213s-.27.17-.4.256c-.108.07-.221.134-.326.209-.139.1-.267.213-.4.322-.09.075-.185.144-.271.223-.13.118-.248.248-.369.375-.078.082-.16.158-.234.243-.117.134-.221.278-.328.421-.067.089-.138.173-.2.265-.1.148-.19.3-.28.46-.056.1-.117.188-.169.287-.084.159-.154.326-.227.492-.038.088-.085.171-.12.261-.014.035-.026.069-.04.1,0,.011-.01.022-.015.033l-.021.061,0,.008-.015.042c-.389,1.058-.749,2.123-1.089,3.194-.007.023-.016.045-.023.067s-.009.03-.013.044a74.871,74.871,0,0,0-2.874,13v-6.6A63.348,63.348,0,0,1,366.989,155.9h23.126a63.348,63.348,0,0,1,63.276,63.276v6.618c-.052-.4-.116-.8-.174-1.2-.005-.033-.008-.066-.013-.1l-.1-.69c0-.013-.005-.028-.007-.041q-.243-1.551-.551-3.087a.221.221,0,0,1,0-.023l-.167-.8-.012-.05q-.3-1.408-.647-2.8c-.006-.024-.01-.047-.016-.071l-.069-.283c-.008-.031-.015-.062-.023-.093,0,0,0-.007,0-.011-.009-.035-.019-.071-.029-.107-.044-.161-.116-.307-.17-.463-.079-.227-.149-.457-.248-.673-.075-.162-.171-.31-.257-.465-.113-.206-.218-.417-.349-.61-.1-.148-.221-.279-.331-.419-.141-.179-.275-.365-.431-.53-.13-.137-.278-.254-.417-.38-.159-.145-.311-.3-.482-.428s-.347-.228-.522-.34-.322-.221-.494-.313c-.2-.107-.414-.186-.624-.275-.164-.069-.322-.152-.491-.209-.226-.077-.462-.123-.7-.178-.168-.04-.33-.094-.5-.122-.227-.037-.461-.042-.693-.058-.177-.013-.349-.044-.528-.044h-.086l-.176,0a7.511,7.511,0,0,0-3.746,1.049c-8.06,4.779-18.739,7.2-31.738,7.2-13.212,0-26.584-4.191-39.515-8.244-16.377-5.133-33.254-10.417-50.427-7.515-.169.029-.338.052-.508.082-.058.011-.117.024-.175.034C316.232,203.849,314.494,204.246,312.752,204.739Zm6.749,62.734q-.316-1.459-.561-2.928c-.011-.066-.025-.132-.036-.2q-.254-1.555-.425-3.118c0-.037-.01-.073-.014-.11-.11-1.012-.19-2.025-.249-3.037,0-.077-.013-.153-.018-.23q-.088-1.619-.089-3.235V235.6c0-.04,0-.08,0-.117v-.006c0-.6.015-1.189.033-1.782.009-.278.019-.56.032-.85.009-.206.022-.412.033-.618,0-.05.006-.1.01-.15l.036-.506c.041-.634.083-1.267.144-1.9v0c.027-.283.061-.564.094-.844l.039-.331c.065-.562.133-1.124.214-1.686.059-.413.127-.823.2-1.234.088-.53.181-1.057.284-1.589q.12-.626.253-1.244c.111-.514.231-1.026.354-1.534l.029-.12c.09-.37.179-.74.279-1.115.136-.513.287-1.022.434-1.525l.036-.121c.315-.057.633-.092.949-.142.547-.086,1.093-.181,1.642-.246.69-.082,1.384-.135,2.078-.185.179-.013.357-.037.537-.048,10.276-.616,21.02,2.127,32.192,5.526,2.177.662,4.368,1.347,6.577,2.039,9.632,3.019,19.489,6.108,29.75,7.744a90.32,90.32,0,0,0,14.258,1.187c2.385,0,4.7-.089,6.969-.232,1.663-.1,3.3-.239,4.9-.421.119-.013.243-.021.362-.035.815-.1,1.606-.219,2.4-.335.473-.069.958-.123,1.425-.2.482-.078.946-.178,1.422-.263.763-.137,1.533-.266,2.28-.422.484-.1.949-.225,1.426-.334.717-.164,1.442-.32,2.144-.5.687-.179,1.351-.385,2.024-.581.471-.137.954-.261,1.417-.407.559-.176,1.1-.377,1.645-.566s1.119-.368,1.662-.572l.013.111c.089.888.154,1.78.2,2.673v0l.031.643a.127.127,0,0,0,0,.019c.04.9.069,1.8.069,2.7v.005c0,.037,0,.076,0,.117v19.02q0,1.615-.089,3.235c0,.077-.013.153-.018.23-.059,1.013-.139,2.025-.249,3.037,0,.037-.01.074-.014.111q-.172,1.56-.425,3.115c-.011.068-.025.135-.036.2q-.244,1.467-.56,2.925a60.657,60.657,0,0,1-40.971,44.821c-.177.055-.355.105-.533.159q-1.088.332-2.192.624c-.262.069-.525.131-.787.2q-.99.246-1.992.461c-.3.065-.611.126-.917.186q-.954.188-1.917.343c-.327.053-.654.106-.982.154-.634.093-1.273.171-1.914.244-.332.038-.663.079-1,.111-.674.065-1.352.112-2.032.155-.3.018-.592.045-.889.059-.972.047-1.948.074-2.931.074q-1.5,0-2.99-.076c-.342-.017-.681-.05-1.022-.072-.646-.043-1.292-.085-1.932-.147-.42-.041-.837-.1-1.256-.148-.552-.066-1.105-.13-1.653-.211-.469-.069-.935-.153-1.4-.233-.485-.083-.971-.165-1.453-.26-.512-.1-1.021-.216-1.531-.33-.426-.1-.852-.19-1.274-.3-.548-.136-1.093-.284-1.638-.436-.375-.1-.75-.208-1.122-.319-.568-.17-1.133-.351-1.7-.538-.35-.116-.7-.233-1.048-.355-.554-.2-1.1-.4-1.654-.612A60.653,60.653,0,0,1,319.5,267.473Zm16.743,90.94,19.512,64.165L326,376.495ZM468.05,483.868V411.889a7.51,7.51,0,0,0-15.02,0v71.979H302.987V461.482a7.51,7.51,0,0,0-15.02,0v22.386H260.128v-79.34a45.967,45.967,0,0,1,32.8-43.851l29.728-8.754-11.176,19.733a10.15,10.15,0,0,0,.539,10.874l60.223,93.277c.011.017.025.032.036.049.04.06.08.12.121.179s.065.086.1.13c.1.13.192.26.3.384.036.043.075.083.112.126.093.107.185.215.284.316l.012.011c.06.061.125.117.187.176s.11.106.167.156c.147.131.3.255.458.375.036.028.07.057.107.083s.055.044.084.065.04.025.059.038c.206.143.422.275.645.4.047.026.092.054.14.079s.089.041.133.063c.071.036.139.077.212.111s.166.064.248.1c.116.049.233.1.351.14.057.021.112.048.169.067l.031.009c.105.035.211.057.316.088s.207.061.312.086c.13.031.26.055.391.079.081.015.162.028.243.04s.148.027.223.036a7.484,7.484,0,0,0,.87.054h.008a7.47,7.47,0,0,0,.87-.054c.075-.009.149-.025.224-.036s.16-.025.239-.039c.132-.024.263-.048.394-.079.105-.025.208-.057.312-.086s.219-.054.327-.09l.013,0c.059-.02.117-.048.176-.07.119-.043.235-.091.351-.14.082-.035.167-.061.248-.1s.144-.076.218-.113c.04-.02.083-.037.123-.058s.1-.055.144-.081a7.4,7.4,0,0,0,.645-.4c.019-.014.04-.025.059-.038s.058-.046.089-.069.06-.048.091-.071c.162-.122.319-.25.469-.383.057-.051.112-.1.168-.157q.254-.24.482-.5c.038-.043.077-.084.114-.128.106-.127.2-.26.3-.393.028-.038.057-.074.084-.113.043-.061.085-.123.126-.185.011-.017.025-.032.036-.049l60.223-93.277a10.145,10.145,0,0,0,.54-10.871l-11.177-19.735,29.729,8.754a45.968,45.968,0,0,1,32.8,43.851v79.336H468.05Z" fill="#eaeaea"/>
      </g>
    </g>
  </g>
</svg>
