<svg xmlns="http://www.w3.org/2000/svg" width="529.5" height="529.5" viewBox="0 0 529.5 529.5">
  <path id="Path_235" data-name="Path 235" d="M159.85,425.6a52.95,52.95,0,1,0,52.95,52.95A52.879,52.879,0,0,0,159.85,425.6ZM1,2V54.95H53.95L149.26,255.9l-35.741,64.864a51.188,51.188,0,0,0-6.619,25.416,53.106,53.106,0,0,0,52.95,52.95h317.7v-52.95H170.97a6.554,6.554,0,0,1-6.619-6.619l.794-3.177,23.828-43.154H386.211a52.7,52.7,0,0,0,46.331-27.269l94.78-171.823A25.867,25.867,0,0,0,530.5,81.425,26.553,26.553,0,0,0,504.025,54.95H112.46L87.573,2H1ZM424.6,425.6a52.95,52.95,0,1,0,52.95,52.95A52.879,52.879,0,0,0,424.6,425.6Z" transform="translate(-1 -2)" fill="#fff"/>
</svg>
