<svg xmlns="http://www.w3.org/2000/svg" width="420.8" height="308" viewBox="0 0 420.8 308">
  <path id="Path_232" data-name="Path 232" d="M413.6,204H378c14.8-33.6,13.2-60.8,7.6-79.2-9.6-32.8-42-68.4-90-68.4a112.525,112.525,0,0,0-38.8,7.2C234,72,218.8,81.2,212,86c-6.8-4.8-21.6-14-44.8-22.4a114.247,114.247,0,0,0-38.8-7.2c-48,0-80.4,35.6-90,68.4-5.6,19.6-7.6,49.2,11.2,86.4H6.4a6.4,6.4,0,1,0,0,12.8H57.2a84.44,84.44,0,0,0,7.2,10.8C106,294.8,196.4,360,212.8,364v.4a1.239,1.239,0,0,0,.8-.4h1.2v-.4c14-6.8,100.8-62.8,146.4-129.2a147.159,147.159,0,0,0,11.2-18h42a6.318,6.318,0,0,0,6.4-6.4C420.8,206.4,417.2,204,413.6,204Zm-64,23.6c-42.4,62-120.4,112-137.2,122.8-17.2-10.8-94.8-61.2-137.6-122.8L72.4,224h58.8a6.6,6.6,0,0,0,6-3.6L164,167.6l42,107.6a6.55,6.55,0,0,0,6,4h.4a6.371,6.371,0,0,0,6-4.8l36.8-126L274.8,212a6.521,6.521,0,0,0,5.2,4.4,6.926,6.926,0,0,0,6.4-2.8L302,190.8l13.2,22.4a6.384,6.384,0,0,0,5.6,3.2h36C354.4,220.4,352,224,349.6,227.6ZM364,204H324.8l-16.4-28a6.384,6.384,0,0,0-5.6-3.2,6.053,6.053,0,0,0-5.6,2.8l-13.6,20-22-71.6c-.8-2.8-3.6-4.4-6.4-4.8a6.846,6.846,0,0,0-6.4,4.8L211.6,252.4,171.2,149.2a6.016,6.016,0,0,0-5.6-4,6.2,6.2,0,0,0-6,3.6l-31.6,62H64.4c-16-29.2-20.4-57.2-13.2-82.4,8.4-28.4,36-58.8,77.6-58.8,11.2,0,22.8,2.4,34.4,6.4,29.2,10.8,44.8,23.2,45.2,23.2a6.083,6.083,0,0,0,8,0S232,86.8,261.6,76A96.7,96.7,0,0,1,296,69.6c41.2,0,69.2,30.4,77.6,58.8C380.4,151.6,376.8,177.2,364,204Z" transform="translate(0 -56.4)" fill="#eaeaea"/>
</svg>
