<svg xmlns="http://www.w3.org/2000/svg" width="511.598" height="510.991" viewBox="0 0 511.598 510.991">
  <g id="relationship" transform="translate(0 -0.303)">
    <path id="Path_233" data-name="Path 233" d="M345.082,297.895a12.16,12.16,0,1,0,12.16,12.16A12.173,12.173,0,0,0,345.082,297.895Z" fill="#eaeaea"/>
    <path id="Path_234" data-name="Path 234" d="M414.814,322.214a12.16,12.16,0,1,0-12.16-12.159A12.173,12.173,0,0,0,414.814,322.214Z" fill="#eaeaea"/>
    <path id="Path_235" data-name="Path 235" d="M96.783,297.895a12.16,12.16,0,1,0,12.16,12.16A12.173,12.173,0,0,0,96.783,297.895Z" fill="#eaeaea"/>
    <path id="Path_236" data-name="Path 236" d="M166.516,322.214a12.16,12.16,0,1,0-12.16-12.159A12.173,12.173,0,0,0,166.516,322.214Z" fill="#eaeaea"/>
    <path id="Path_237" data-name="Path 237" d="M474.206,411.691c10.161-7.528,18.22-20.823,24.031-39.712a7.5,7.5,0,1,0-14.336-4.411c-3.811,12.387-10.469,27.656-21.12,33.688a131.493,131.493,0,0,0-43.324-23.347,91.988,91.988,0,0,0,52.364-82.934V279.8a7.5,7.5,0,0,0-6.229-7.392c-37.126-6.383-62.82-44.06-63.07-44.432a7.5,7.5,0,0,0-13.18,1.337c-.176.43-18.389,42.987-93.769,42.987a7.5,7.5,0,0,0-7.5,7.5v15.173a91.989,91.989,0,0,0,52.365,82.934,131.516,131.516,0,0,0-43.316,23.341c-5.932-3.359-11.224-9.914-15.765-19.574-17.839-37.949-17.846-113.1-5.341-145.726a111.273,111.273,0,0,1,207.862,0c8.657,22.585,11.281,67.057,6.1,103.445a7.5,7.5,0,1,0,14.85,2.113c5.581-39.215,2.659-85.867-6.947-110.927a126.273,126.273,0,0,0-235.874,0c-13.8,36-13.848,115.74,5.771,157.476,4.959,10.549,10.96,18.452,17.917,23.626A131.9,131.9,0,0,0,255.8,459.7a132.265,132.265,0,0,0-84.64-81.791,92.51,92.51,0,0,0,38.234-34.032,27.323,27.323,0,0,0,34.866-40.006c11.147-32.416,19.429-76.1.038-108.149-10.871-17.969-28.934-29.52-50.861-32.524a64.856,64.856,0,0,0-35.5,5.29c-10.429-12.417-22.3-19.081-46.92-19.081-20.193,0-52.2,8.024-75.93,30.637A7.5,7.5,0,1,0,45.433,190.9c20.526-19.558,48.157-26.5,65.582-26.5,23.792,0,30.552,6.839,38.857,18.1a7.538,7.538,0,0,0,10.209,1.781A49.438,49.438,0,0,1,191.4,178.06c17.353,2.377,31.581,11.408,40.062,25.427,12.628,20.875,12.682,52.065.259,90.573a27.152,27.152,0,0,0-8.2-1.783V279.8a7.5,7.5,0,0,0-6.23-7.392c-37.126-6.383-62.82-44.06-63.07-44.432a7.5,7.5,0,0,0-13.181,1.337c-.176.43-18.389,42.987-93.767,42.987a7.5,7.5,0,0,0-7.5,7.5v12.474a27.141,27.141,0,0,0-8.792,2.018C19.013,262.65,18.416,235.3,29.245,212.917a7.5,7.5,0,1,0-13.5-6.533c-13.246,27.38-12.22,60.287,3.029,97.863a27.324,27.324,0,0,0,35.134,39.63A92.5,92.5,0,0,0,92.14,377.909,131.882,131.882,0,0,0,0,503.5v.3a7.5,7.5,0,0,0,7.5,7.5H504.1a7.5,7.5,0,0,0,7.5-7.5v-.3A131.206,131.206,0,0,0,474.206,411.691Zm-94.258-24.843a116.817,116.817,0,0,1,22,2.087,24,24,0,0,1-44.006,0A116.825,116.825,0,0,1,379.948,386.848Zm-76.875-91.874v-7.806c56.892-2.037,83.319-27.061,93.989-41.73,10.322,12.264,31.443,33.274,59.76,40.432v9.1a76.875,76.875,0,0,1-153.749,0ZM131.649,386.848a116.817,116.817,0,0,1,22,2.087,24,24,0,0,1-44.006,0A116.825,116.825,0,0,1,131.649,386.848Zm90.238-54.931a12.229,12.229,0,0,1-5.54-1.348,91.129,91.129,0,0,0,6.353-23.306,12.34,12.34,0,0,1-.813,24.654Zm-180.475,0a12.34,12.34,0,0,1-.813-24.654,91.129,91.129,0,0,0,6.353,23.306A12.242,12.242,0,0,1,41.412,331.917Zm13.551-31.848-.006-.086c-.107-1.658-.181-3.324-.181-5.009v-7.806c56.891-2.037,83.318-27.061,93.988-41.73,10.322,12.264,31.443,33.274,59.76,40.432v9.1c0,1.685-.074,3.351-.181,5.009,0,.029,0,.057-.007.086a76.854,76.854,0,0,1-153.373,0ZM15.22,496.294a116.9,116.9,0,0,1,79.8-103.549,39,39,0,0,0,73.262,0,116.908,116.908,0,0,1,79.8,103.549Zm248.3,0a116.9,116.9,0,0,1,79.8-103.549,39,39,0,0,0,73.262,0,116.908,116.908,0,0,1,79.8,103.549Z" fill="#eaeaea"/>
    <path id="Path_238" data-name="Path 238" d="M206.178,112.053a7.5,7.5,0,0,0,.35-10.6c-17.084-18.248-24.52-36.459-22.1-54.125,3.657-26.733,22.858-31.2,30.943-31.88C230.693,14.158,245,21.96,248.641,33.594a7.5,7.5,0,0,0,14.314,0C266.6,21.96,280.9,14.156,296.229,15.447c8.085.68,27.286,5.146,30.943,31.88,6.306,46.1-56.2,82.791-71.384,90.975a223.114,223.114,0,0,1-27.867-17.867,7.5,7.5,0,1,0-9.027,11.979A226.342,226.342,0,0,0,252.518,153.5a7.559,7.559,0,0,0,6.559,0,227.6,227.6,0,0,0,44.007-29.438c29.1-25.068,42.57-52.305,38.95-78.766C337.847,14.676,316.276,2.08,297.486.5,280.755-.908,265.106,5.379,255.8,16.286,246.492,5.379,230.848-.912,214.111.5c-18.79,1.58-40.36,14.176-44.549,44.794C166.5,67.653,175.255,90,195.576,111.7A7.5,7.5,0,0,0,206.178,112.053Z" fill="#eaeaea"/>
  </g>
</svg>
