<svg xmlns="http://www.w3.org/2000/svg" width="529.248" height="529.248" viewBox="0 0 529.248 529.248">
  <path id="Path_236" data-name="Path 236" d="M381.25,335.86H357.345l-8.473-8.17a195.82,195.82,0,0,0,47.508-128C396.38,91.057,308.324,3,199.69,3S3,91.057,3,199.69,91.057,396.38,199.69,396.38a195.82,195.82,0,0,0,128-47.508l8.17,8.473V381.25l151.3,151,45.088-45.088Zm-181.56,0A136.17,136.17,0,1,1,335.86,199.69,135.988,135.988,0,0,1,199.69,335.86Z" transform="translate(-3 -3)" fill="#fff"/>
</svg>
