<svg xmlns="http://www.w3.org/2000/svg" width="441.764" height="529.5" viewBox="0 0 441.764 529.5">
  <g id="Group_451" data-name="Group 451" transform="translate(-10162.547 1239.076)">
    <path id="Path_232" data-name="Path 232" d="M216.988,248.447c35.706,0,66.624-12.242,91.887-36.395s38.069-53.7,38.069-87.833S334.137,60.544,308.87,36.387,252.689,0,216.987,0,150.367,12.242,125.1,36.391s-38.073,53.7-38.073,87.829,12.81,63.688,38.077,87.837,56.181,36.391,91.879,36.391Zm0,0" transform="translate(10163.18 -1239.077)" fill="#fff"/>
    <path id="Path_233" data-name="Path 233" d="M440.694,394.78a299.289,299.289,0,0,0-4.29-32.589,251.3,251.3,0,0,0-8.229-32.767,159.72,159.72,0,0,0-13.828-30.559,115.746,115.746,0,0,0-20.853-26.47,92.332,92.332,0,0,0-29.955-18.334,105.994,105.994,0,0,0-38.24-6.74c-5.405,0-10.633,2.161-20.728,8.562-6.213,3.947-13.481,8.513-21.593,13.561-6.936,4.305-16.333,8.338-27.939,11.99a111.226,111.226,0,0,1-68.345,0c-11.594-3.647-20.991-7.681-27.919-11.986-8.035-5-15.307-9.566-21.613-13.568-10.083-6.4-15.315-8.563-20.72-8.563a105.845,105.845,0,0,0-38.236,6.749A92.242,92.242,0,0,0,48.247,272.4,115.757,115.757,0,0,0,27.4,298.865a160.052,160.052,0,0,0-13.828,30.563,251.872,251.872,0,0,0-8.225,32.763,298.2,298.2,0,0,0-4.29,32.6C.355,404.661,0,414.9,0,425.249c0,26.923,8.786,48.72,26.113,64.793C43.225,505.9,65.868,513.951,93.4,513.951H348.36c27.535,0,50.17-8.042,67.286-23.909,17.331-16.062,26.117-37.862,26.117-64.8,0-10.392-.364-20.643-1.07-30.465Zm0,0" transform="translate(10162.547 -1223.527)" fill="#fff"/>
  </g>
</svg>
