<svg xmlns="http://www.w3.org/2000/svg" width="770.764" height="674.02" viewBox="0 0 770.764 674.02">
  <g id="whygalaxy_dark4" transform="translate(5359.836 -145.5)">
    <g id="heart" transform="translate(-5358.836 126)">
      <path id="Path_189" data-name="Path 189" d="M55.153,262.6a15.153,15.153,0,1,0,15.153,15.153A15.159,15.159,0,0,0,55.153,262.6Zm0,0" transform="translate(20.611 134.554)" fill="#333" stroke="#fff" stroke-width="2"/>
      <path id="Path_190" data-name="Path 190" d="M697.833,344.707,542.782,400.361c.633-3.516,11.807-22.6,11.807-26.242a60.679,60.679,0,0,0-60.611-60.612H395.851a15.16,15.16,0,0,1-7.44-1.947l-80.056-45.026A106.159,106.159,0,0,0,256.338,252.9H148.918c-6.251-17.633-21.256-26.139-41.008-26.139H15.153C6.783,226.758,0,229.38,0,237.75V510.5a15.151,15.151,0,0,0,15.153,15.153H106.07c19.3,0,38.888-23.428,45.459-40.463,17.153,2.131,44.034,12.821,56.505,20.3l72.751,45.742c30.022,18.018,63.534,28.29,95.834,27.273,36.552-.213,45.773-10.049,72.207-16.811L734.937,437.465c31.324-12.708,43.368-35.809,25.463-68.932-13.17-24.375-34.792-33.788-62.565-23.826ZM129.4,485.185c-.036,8.322-15,20.3-23.327,20.3H15.116l.037-261.81h96.583c17.662,0,17.662,14.5,17.662,22.856Zm598.443-68.792c-.16.059-.32.13-.479.2L444.068,541.328a162.857,162.857,0,0,1-151.262-8.595l-79.251-47.548c-16.964-10.175-41.256-19.5-62.026-21.985l-.7-189.972h105.5c13,0,30.506,7.448,41.817,13.823l77.48,43.287c6.783,3.824,17.661,5.82,25.463,5.82h95.214c16.71,0,36.012,15.659,36.012,32.374,0,16.651-14.216,43.287-30.919,43.287H339.94c-8.37,0-14.957,4-14.957,12.368s6.588,10.543,14.957,10.543H493.978a60.494,60.494,0,0,0,28.406-7.1L706.627,364.3c13.578-4.9,28.933-.024,34.952,11.116,9.027,16.7,1.563,34.852-13.738,40.978Zm0,0" transform="translate(0 113.942)" fill="#333" stroke="#fff" stroke-width="2"/>
      <path id="Path_191" data-name="Path 191" d="M358.9,368.04a15.167,15.167,0,0,0,19.853,0C502.386,260.892,574.647,174.717,578.839,120.247c3.078-59.6-47.171-98.746-113.47-98.746-43.541,0-76.883,34.1-98.358,71.76-21.427-37.58-54.734-71.76-98.34-71.76-50.756,0-97.3,47.348-108.457,85.8-2.356,8.032,8.515,12.131,10.865,4.1,11.039-37.669,60.621-78.6,97.592-78.6,43.227,0,74.193,33.849,92.2,74.5,1.817,6.564,11.458,1,12.549,0s29.449-76.5,91.948-76.5c47.424,0,100.187,28.374,100.187,80.6,0,67.407-82.88,151.187-196.728,249.349-69.366-59.57-153.838-137.089-185.156-178.108-5.079-6.653-17.665-.783-12.592,5.876,62.621,70.47,87.756,92.45,187.822,179.52Zm0,0" transform="translate(82.42 -0.501)" fill="#333" stroke="#333" stroke-width="3"/>
    </g>
    <g id="Group_452" data-name="Group 452" transform="matrix(-0.951, -0.309, 0.309, -0.951, -10630.33, 1996.68)">
      <line id="Line_10" data-name="Line 10" x1="11" y2="20" transform="translate(-4703.5 3302.5)" fill="none" stroke="#000" stroke-linecap="round" stroke-width="15"/>
      <line id="Line_11" data-name="Line 11" x2="21" y2="12" transform="translate(-4759.5 3321.5)" fill="none" stroke="#000" stroke-linecap="round" stroke-width="15"/>
      <line id="Line_12" data-name="Line 12" x1="11" y2="20" transform="translate(-4739.5 3368.5)" fill="none" stroke="#000" stroke-linecap="round" stroke-width="15"/>
      <line id="Line_13" data-name="Line 13" x2="23" y2="13" transform="translate(-4694.5 3357.5)" fill="none" stroke="#000" stroke-linecap="round" stroke-width="15"/>
    </g>
  </g>
</svg>
