<svg xmlns="http://www.w3.org/2000/svg" width="665.455" height="673" viewBox="0 0 665.455 673">
  <g id="whygalaxy_dark1" transform="translate(4198.846 -24.675)">
    <g id="Group_451" data-name="Group 451" transform="translate(-4197.845 24.675)">
      <g id="magic-wand" transform="translate(0 41.353)">
        <path id="Path_195" data-name="Path 195" d="M497.07,194.272l28.767-84.191A15.815,15.815,0,0,0,505.758,90l-23.7,8.1a9.624,9.624,0,0,0,6.222,18.214l17.082-5.837-27.032,79.113a15.752,15.752,0,0,0,1.549,13.492l45.512,72.9-87.663-6.857a15.74,15.74,0,0,0-14.52,7.184l-44.4,68.727L356.213,270.2a15.777,15.777,0,0,0-10.569-10.573L270.8,237.033l68.729-44.4a15.8,15.8,0,0,0,7.183-14.516l-6.858-87.666,72.9,45.514a15.762,15.762,0,0,0,13.483,1.545l23.14-7.907a9.623,9.623,0,0,0-6.222-18.212l-21.6,7.379L344.284,70.522A15.816,15.816,0,0,0,320.139,85.17l7.229,92.407-73.237,47.313a15.815,15.815,0,0,0,4.011,28.424l43.037,12.993L72.817,494.665a9.624,9.624,0,0,0,13.612,13.61L322.087,272.618l16.231,4.9,4.9,16.232-71.955,71.955a9.624,9.624,0,0,0,13.612,13.61l64.656-64.658,12.993,43.036a15.663,15.663,0,0,0,12.93,11.089,16.129,16.129,0,0,0,2.278.16,15.639,15.639,0,0,0,13.216-7.238l47.315-73.236L530.67,295.7a15.818,15.818,0,0,0,14.648-24.145Z" transform="translate(19.82 -5.008)" fill="#333" stroke="#fff" stroke-width="2"/>
        <path id="Path_196" data-name="Path 196" d="M262.032,323.3,45.325,540.006c-6.277,6.277-16.124,6.649-21.952.82s-5.458-15.674.821-21.951L77.2,465.87a9.624,9.624,0,1,0-13.61-13.61l-53.007,53C-3.2,519.047-3.568,541.1,9.763,554.436A33.495,33.495,0,0,0,33.6,564.2a35.841,35.841,0,0,0,25.341-10.581L275.644,336.907a9.624,9.624,0,1,0-13.612-13.61Z" transform="translate(0 66.45)" fill="#333" stroke="#fff" stroke-width="2"/>
        <path id="Path_199" data-name="Path 199" d="M249.27,56.292a9.623,9.623,0,1,0,14.967-12.1L246.7,22.506a9.623,9.623,0,1,0-14.967,12.1Z" transform="translate(65.009 -18.932)" fill="#333" stroke="#fff" stroke-width="2"/>
        <path id="Path_202" data-name="Path 202" d="M497.652,272.539l-21.687-17.533a9.623,9.623,0,0,0-12.1,14.967L485.552,287.5a9.623,9.623,0,0,0,12.1-14.966Z" transform="translate(130.329 47.305)" fill="#333" stroke="#fff" stroke-width="2"/>
        <path id="Path_203" data-name="Path 203" d="M480.553,43.412a9.622,9.622,0,0,0-13.6-.453L442.893,65.467a9.624,9.624,0,0,0,13.149,14.056L480.1,57.015A9.623,9.623,0,0,0,480.553,43.412Z" transform="translate(124.54 -12.864)" fill="#333" stroke="#fff" stroke-width="2"/>
      </g>
      <g id="Path_235" data-name="Path 235" transform="matrix(0.616, -0.788, 0.788, 0.616, 387.884, 69.494)" fill="none">
        <path d="M46.072.225c26.171,4.922,8.773,42.046,8.773,42.046S95.257,45.785,87.1,70.577,0,72.693,0,72.693,19.9-4.7,46.072.225Z" stroke="none"/>
        <path d="M 43.67076873779297 9.999977111816406 C 34.85420989990234 9.999977111816406 20.90576171875 37.65927886962891 12.39752197265625 65.55582427978516 C 23.68280792236328 68.24796295166016 42.82721328735352 72.17198181152344 58.5346794128418 72.17198181152344 C 72.38897705078125 72.17198181152344 77.06536102294922 69.08432006835938 77.60244750976563 67.45163726806641 C 78.67963409423828 64.17725372314453 78.08842468261719 62.6141357421875 77.36801910400391 61.51693344116211 C 73.96174621582031 56.32904815673828 61.38497161865234 52.90920639038086 53.97842788696289 52.23325347900391 L 39.78688049316406 50.97879791259766 L 45.78094863891602 38.04604721069336 C 48.92942810058594 31.25297927856445 52.27481460571289 18.65109252929688 49.45619964599609 13.17641448974609 C 49.09124755859375 12.46752166748047 48.23656463623047 10.80745697021484 44.22390365600586 10.05286407470703 C 44.03806304931641 10.01791381835938 43.85376739501953 9.999977111816406 43.67076873779297 9.999977111816406 M 43.6707649230957 -3.0517578125e-05 C 44.46512603759766 -3.0517578125e-05 45.26543426513672 0.0734405517578125 46.07210922241211 0.2251358032226563 C 72.24351501464844 5.146728515625 54.84467697143555 42.27084350585938 54.84467697143555 42.27084350585938 C 54.84467697143555 42.27084350585938 95.25740814208984 45.78477478027344 87.10165405273438 70.57659149169922 C 84.21946716308594 79.33785247802734 72.48992919921875 82.17197418212891 58.53468322753906 82.17197418212891 C 33.00069046020508 82.17197418212891 -7.62939453125e-06 72.69304656982422 -7.62939453125e-06 72.69304656982422 C -7.62939453125e-06 72.69304656982422 18.69322204589844 -3.0517578125e-05 43.6707649230957 -3.0517578125e-05 Z" stroke="none" fill="#333"/>
      </g>
      <g id="Path_236" data-name="Path 236" transform="translate(584.529 162.116) rotate(25)" fill="none">
        <path d="M46.072.225c26.171,4.922,8.773,42.046,8.773,42.046S95.257,45.785,87.1,70.577,0,72.693,0,72.693,19.9-4.7,46.072.225Z" stroke="none"/>
        <path d="M 43.67076873779297 9.999977111816406 C 34.85420989990234 9.999977111816406 20.90576171875 37.65927886962891 12.39752197265625 65.55582427978516 C 23.68280792236328 68.24796295166016 42.82721328735352 72.17198181152344 58.5346794128418 72.17198181152344 C 72.38897705078125 72.17198181152344 77.06536102294922 69.08432006835938 77.60244750976563 67.45163726806641 C 78.67963409423828 64.17725372314453 78.08842468261719 62.6141357421875 77.36801910400391 61.51693344116211 C 73.96174621582031 56.32904815673828 61.38497161865234 52.90920639038086 53.97842788696289 52.23325347900391 L 39.78688049316406 50.97879791259766 L 45.78094863891602 38.04604721069336 C 48.92942810058594 31.25297927856445 52.27481460571289 18.65109252929688 49.45619964599609 13.17641448974609 C 49.09124755859375 12.46752166748047 48.23656463623047 10.80745697021484 44.22390365600586 10.05286407470703 C 44.03806304931641 10.01791381835938 43.85376739501953 9.999977111816406 43.67076873779297 9.999977111816406 M 43.6707649230957 -3.0517578125e-05 C 44.46512603759766 -3.0517578125e-05 45.26543426513672 0.0734405517578125 46.07210922241211 0.2251358032226563 C 72.24351501464844 5.146728515625 54.84467697143555 42.27084350585938 54.84467697143555 42.27084350585938 C 54.84467697143555 42.27084350585938 95.25740814208984 45.78477478027344 87.10165405273438 70.57659149169922 C 84.21946716308594 79.33785247802734 72.48992919921875 82.17197418212891 58.53468322753906 82.17197418212891 C 33.00069046020508 82.17197418212891 -7.62939453125e-06 72.69304656982422 -7.62939453125e-06 72.69304656982422 C -7.62939453125e-06 72.69304656982422 18.69322204589844 -3.0517578125e-05 43.6707649230957 -3.0517578125e-05 Z" stroke="none" fill="#333"/>
      </g>
      <g id="Path_237" data-name="Path 237" transform="matrix(-0.052, 0.999, -0.999, -0.052, 550.196, 360.669)" fill="none">
        <path d="M46.072.225c26.171,4.922,8.773,42.046,8.773,42.046S95.257,45.785,87.1,70.577,0,72.693,0,72.693,19.9-4.7,46.072.225Z" stroke="none"/>
        <path d="M 43.67076873779297 9.999977111816406 C 34.85420989990234 9.999977111816406 20.90576171875 37.65927886962891 12.39752197265625 65.55582427978516 C 23.68280792236328 68.24796295166016 42.82721328735352 72.17198181152344 58.5346794128418 72.17198181152344 C 72.38897705078125 72.17198181152344 77.06536102294922 69.08432006835938 77.60244750976563 67.45163726806641 C 78.67963409423828 64.17725372314453 78.08842468261719 62.6141357421875 77.36801910400391 61.51693344116211 C 73.96174621582031 56.32904815673828 61.38497161865234 52.90920639038086 53.97842788696289 52.23325347900391 L 39.78688049316406 50.97879791259766 L 45.78094863891602 38.04604721069336 C 48.92942810058594 31.25297927856445 52.27481460571289 18.65109252929688 49.45619964599609 13.17641448974609 C 49.09124755859375 12.46752166748047 48.23656463623047 10.80745697021484 44.22390365600586 10.05286407470703 C 44.03806304931641 10.01791381835938 43.85376739501953 9.999977111816406 43.67076873779297 9.999977111816406 M 43.6707649230957 -3.0517578125e-05 C 44.46512603759766 -3.0517578125e-05 45.26543426513672 0.0734405517578125 46.07210922241211 0.2251358032226563 C 72.24351501464844 5.146728515625 54.84467697143555 42.27084350585938 54.84467697143555 42.27084350585938 C 54.84467697143555 42.27084350585938 95.25740814208984 45.78477478027344 87.10165405273438 70.57659149169922 C 84.21946716308594 79.33785247802734 72.48992919921875 82.17197418212891 58.53468322753906 82.17197418212891 C 33.00069046020508 82.17197418212891 -7.62939453125e-06 72.69304656982422 -7.62939453125e-06 72.69304656982422 C -7.62939453125e-06 72.69304656982422 18.69322204589844 -3.0517578125e-05 43.6707649230957 -3.0517578125e-05 Z" stroke="none" fill="#333"/>
      </g>
      <g id="Path_238" data-name="Path 238" transform="translate(243.848 231.218) rotate(-119)" fill="none">
        <path d="M46.072.225c26.171,4.922,8.773,42.046,8.773,42.046S95.257,45.785,87.1,70.577,0,72.693,0,72.693,19.9-4.7,46.072.225Z" stroke="none"/>
        <path d="M 43.67076873779297 9.999977111816406 C 34.85420989990234 9.999977111816406 20.90576171875 37.65927886962891 12.39752197265625 65.55582427978516 C 23.68280792236328 68.24796295166016 42.82721328735352 72.17198181152344 58.5346794128418 72.17198181152344 C 72.38897705078125 72.17198181152344 77.06536102294922 69.08432006835938 77.60244750976563 67.45163726806641 C 78.67963409423828 64.17725372314453 78.08842468261719 62.6141357421875 77.36801910400391 61.51693344116211 C 73.96174621582031 56.32904815673828 61.38497161865234 52.90920639038086 53.97842788696289 52.23325347900391 L 39.78688049316406 50.97879791259766 L 45.78094863891602 38.04604721069336 C 48.92942810058594 31.25297927856445 52.27481460571289 18.65109252929688 49.45619964599609 13.17641448974609 C 49.09124755859375 12.46752166748047 48.23656463623047 10.80745697021484 44.22390365600586 10.05286407470703 C 44.03806304931641 10.01791381835938 43.85376739501953 9.999977111816406 43.67076873779297 9.999977111816406 M 43.6707649230957 -3.0517578125e-05 C 44.46512603759766 -3.0517578125e-05 45.26543426513672 0.0734405517578125 46.07210922241211 0.2251358032226563 C 72.24351501464844 5.146728515625 54.84467697143555 42.27084350585938 54.84467697143555 42.27084350585938 C 54.84467697143555 42.27084350585938 95.25740814208984 45.78477478027344 87.10165405273438 70.57659149169922 C 84.21946716308594 79.33785247802734 72.48992919921875 82.17197418212891 58.53468322753906 82.17197418212891 C 33.00069046020508 82.17197418212891 -7.62939453125e-06 72.69304656982422 -7.62939453125e-06 72.69304656982422 C -7.62939453125e-06 72.69304656982422 18.69322204589844 -3.0517578125e-05 43.6707649230957 -3.0517578125e-05 Z" stroke="none" fill="#333"/>
      </g>
    </g>
  </g>
</svg>
