<svg xmlns="http://www.w3.org/2000/svg" width="740.525" height="802.058" viewBox="0 0 740.525 802.058">
  <g id="whygalaxy_dark3" transform="translate(4265.949 -1355.898)">
    <g id="donation" transform="translate(-4265.949 1772.222)">
      <path id="Path_186" data-name="Path 186" d="M3.253,400.226c2.523,4.714,5.9,5.289,11.247,5.289H87.007V617.233a14.5,14.5,0,0,0,14.5,14.5H640.957c8.009,0,12.065-6.494,12.065-14.5V400.226l74.754-.373c5.348,0,12.975-1.781,14.212-3.23s1.73-7.177-1.237-11.628L653.022,252.457c-2.688-4.034-6.639-3.984-11.487-3.984l-55.683,2.321c-8.009,0-14.313-1.165-14.084,4.345s6.075,3.777,14.084,3.777l60.851-2.476L735.958,392.1l-283.731,2.2L379.808,258.682l75.532,1.329c8.009,0,15.414.264,15.414-4.871s-15.57-4.472-15.414-4.345c-16.561,0-337.805-4.795-353.832-4.795-4.849,0-6.861,5.4-9.549,9.43L7.531,384.468c-2.967,4.45-6.8,11.042-4.279,15.757Zm93.058,5.289H284.225a14.5,14.5,0,0,0,12.065-6.457l73.874-126.315V623H96.311Zm349.864-6.457c2.689,4.034,8.012,3.6,12.86,3.6H644.011V623h-264.2V272.742ZM101.508,251.992l266.881,6.69L287.015,397.856H7.531Z" transform="translate(-2.433 -246)" fill="#333"/>
    </g>
    <g id="Path_232" data-name="Path 232" transform="translate(-4098.426 1662.546) rotate(-59)" fill="none">
      <path d="M107.485.525c61.057,11.482,20.466,98.092,20.466,98.092s94.282,8.2,75.255,66.037S0,169.592,0,169.592,46.428-10.957,107.485.525Z" stroke="none"/>
      <path d="M 101.8831787109375 7.999984741210938 C 61.40867614746094 7.999984741210938 23.583251953125 114.1672286987305 9.789520263671875 163.9567413330078 C 30.48263549804688 169.387939453125 89.50462341308594 183.7059020996094 136.5603637695313 183.7059020996094 C 160.2629852294922 183.7059020996094 189.7475280761719 179.9668579101563 195.6074066162109 162.154052734375 C 199.0863800048828 151.5786437988281 198.3281860351563 142.7189025878906 193.2894134521484 135.0685577392578 C 180.2973022460938 115.3425979614258 141.2156372070313 107.8205184936523 127.2531814575195 106.5866317749023 L 115.8732604980469 105.5756759643555 L 120.7054901123047 95.22728729248047 C 126.6679534912109 82.45845031738281 139.7864074707031 44.72801208496094 129.0291442871094 23.76043701171875 C 124.8095245361328 15.53570556640625 117.2789154052734 10.50717163085938 106.0069122314453 8.387481689453125 C 104.6216430664063 8.126937866210938 103.2473373413086 7.999984741210938 101.8831787109375 7.999984741210938 M 101.8831787109375 -3.0517578125e-05 C 103.7364044189453 -3.0517578125e-05 105.6035308837891 0.17138671875 107.4854888916016 0.5252838134765625 C 168.5429534912109 12.00724792480469 127.9517593383789 98.61721038818359 127.9517593383789 98.61721038818359 C 127.9517593383789 98.61721038818359 222.2339935302734 106.8151321411133 203.2067565917969 164.6540222167969 C 196.482666015625 185.0939178466797 169.1177368164063 191.7059173583984 136.5603942871094 191.7059173583984 C 76.99000549316406 191.7059173583984 -1.52587890625e-05 169.5917510986328 -1.52587890625e-05 169.5917510986328 C -1.52587890625e-05 169.5917510986328 43.6109619140625 -3.0517578125e-05 101.8831787109375 -3.0517578125e-05 Z" stroke="none" fill="#333"/>
    </g>
    <g id="Path_233" data-name="Path 233" transform="translate(-3913.347 1566.973) rotate(-59)" fill="none">
      <path d="M128.646.629c73.078,13.742,24.5,117.4,24.5,117.4s112.843,9.812,90.07,79.037S0,202.979,0,202.979,55.568-13.114,128.646.629Z" stroke="none"/>
      <path d="M 121.9408874511719 7.999969482421875 C 72.10751342773438 7.999969482421875 26.02583312988281 138.0945739746094 9.775848388671875 197.3515777587891 C 33.09832763671875 203.5282897949219 105.7402038574219 221.4469757080078 163.4449768066406 221.4469757080078 C 192.3338928222656 221.4469757080078 228.3046569824219 216.7839660644531 235.6125640869141 194.5694732666016 C 239.9370269775391 181.4239807128906 238.9696197509766 170.3744812011719 232.655029296875 160.7894592285156 C 213.4899749755859 131.6986083984375 153.0521545410156 126.055061340332 152.4439392089844 126.0014266967773 L 141.0586242675781 124.9936065673828 L 145.8957061767578 114.6411590576172 C 146.1555786132813 114.0849304199219 171.7016143798828 58.65992736816406 155.8343505859375 27.72306823730469 C 150.5474243164063 17.41505432128906 141.1704711914063 11.1241455078125 127.1675720214844 8.490875244140625 C 125.4117431640625 8.160690307617188 123.6698913574219 7.999969482421875 121.9408874511719 7.999969482421875 M 121.9409027099609 -3.0517578125e-05 C 124.1589660644531 -3.0517578125e-05 126.3936462402344 0.2051239013671875 128.6461181640625 0.628692626953125 C 201.7239379882813 14.37115478515625 153.1415710449219 118.0319213867188 153.1415710449219 118.0319213867188 C 153.1415710449219 118.0319213867188 265.9850158691406 127.8437881469727 243.2119293212891 197.0694274902344 C 235.1640625 221.5332946777344 202.4118957519531 229.4469604492188 163.4449920654297 229.4469604492188 C 92.14701843261719 229.4469604492188 -3.0517578125e-05 202.9792022705078 -3.0517578125e-05 202.9792022705078 C -3.0517578125e-05 202.9792022705078 52.1966552734375 -3.0517578125e-05 121.9409027099609 -3.0517578125e-05 Z" stroke="none" fill="#333"/>
    </g>
  </g>
</svg>
