<svg xmlns="http://www.w3.org/2000/svg" width="890.306" height="628.891" viewBox="0 0 890.306 628.891">
  <g id="whygalaxy_dark2" transform="translate(3567.293 -259.109)">
    <g id="Group_455" data-name="Group 455" transform="translate(-3567.293 259.109)">
      <g id="truck" transform="translate(0 0)">
        <g id="truck-2" data-name="truck" transform="translate(0 0)">
          <g id="Group_401" data-name="Group 401" transform="translate(589.133 159.931)">
            <g id="Group_400" data-name="Group 400" transform="translate(0 0)">
              <path id="Path_215" data-name="Path 215" d="M624.76,381.88l-110.667-183.4c-2.771-4.308-14.934-26.338-20.055-26.338H336.012c.483-.242-3.866,5.618-1.818,379.7v14.729h57.872l-1.27-14.729H344.4l2.483-370.7h143.77L614.614,385.217l7.759,154.359H544.785v16.243h74.771c.412.048,15.131.057,15.259,0L624.76,381.88C625,382.364,626.328,384.3,624.76,381.88Z" transform="translate(-333.642 -172.139)" fill="#333"/>
            </g>
          </g>
          <g id="Group_403" data-name="Group 403" transform="translate(632.5 208.017)">
            <g id="Group_402" data-name="Group 402">
              <path id="Path_216" data-name="Path 216" d="M367.482,355.664V215.591H508.11l.878-15.058H373.459A15.054,15.054,0,0,0,358.4,215.591V351.12a15.044,15.044,0,0,0,15.058,15.058H599.341V355.664l-231.859,0Z" transform="translate(-358.401 -200.533)" fill="#333"/>
            </g>
          </g>
          <g id="Group_405" data-name="Group 405" transform="translate(0 61.879)">
            <g id="Group_404" data-name="Group 404" transform="translate(0 0)">
              <path id="Path_217" data-name="Path 217" d="M602.354,124.085,0,124.044c.156.1-.112,469.323,0,469.424H135.532v-16.5H15.061L12.181,138.487H588.611L586.366,576.97H286.12v16.5H588.611c8.328,0,13.743,16.337,13.743,8.009V124.085Z" transform="translate(0.025 -124.044)" fill="#333"/>
            </g>
          </g>
          <g id="Group_407" data-name="Group 407" transform="translate(11.719 471.698)">
            <g id="Group_406" data-name="Group 406">
              <rect id="Rectangle_253" data-name="Rectangle 253" width="90.353" height="13.849" fill="#333"/>
            </g>
          </g>
          <g id="Group_409" data-name="Group 409" transform="translate(316.263 471.698)">
            <g id="Group_408" data-name="Group 408">
              <rect id="Rectangle_254" data-name="Rectangle 254" width="256" height="13.849" fill="#333"/>
            </g>
          </g>
          <g id="Group_411" data-name="Group 411" transform="translate(824.894 472.825)">
            <g id="Group_410" data-name="Group 410">
              <rect id="Rectangle_255" data-name="Rectangle 255" width="60.235" height="16.829" fill="#333"/>
            </g>
          </g>
          <g id="Group_413" data-name="Group 413" transform="translate(60.263 118.162)">
            <g id="Group_412" data-name="Group 412" transform="translate(0 0)">
              <rect id="Rectangle_256" data-name="Rectangle 256" width="527.059" height="14.562" fill="#333"/>
            </g>
          </g>
          <g id="Group_415" data-name="Group 415" transform="translate(198.927 529.632)">
            <g id="Group_414" data-name="Group 414">
              <rect id="Rectangle_257" data-name="Rectangle 257" width="26.943" height="26.943" fill="#333"/>
            </g>
          </g>
          <g id="Group_417" data-name="Group 417" transform="translate(713.173 529.632)">
            <g id="Group_416" data-name="Group 416">
              <rect id="Rectangle_258" data-name="Rectangle 258" width="26.943" height="26.943" fill="#333"/>
            </g>
          </g>
          <g id="Group_419" data-name="Group 419" transform="translate(60.263 0)">
            <g id="Group_418" data-name="Group 418" transform="translate(0 0)">
              <rect id="Rectangle_259" data-name="Rectangle 259" width="210.824" height="12.253" fill="#333"/>
            </g>
          </g>
          <g id="Group_421" data-name="Group 421" transform="translate(0.028 0)">
            <g id="Group_420" data-name="Group 420">
              <rect id="Rectangle_260" data-name="Rectangle 260" width="30.118" height="12.253" fill="#333"/>
            </g>
          </g>
        </g>
        <g id="Ellipse_23" data-name="Ellipse 23" transform="translate(125.293 455.891)" fill="none" stroke="#333" stroke-width="11">
          <ellipse cx="85.5" cy="86.5" rx="85.5" ry="86.5" stroke="none"/>
          <ellipse cx="85.5" cy="86.5" rx="80" ry="81" fill="none"/>
        </g>
        <g id="Ellipse_24" data-name="Ellipse 24" transform="translate(638.293 455.891)" fill="none" stroke="#333" stroke-width="11">
          <ellipse cx="85.5" cy="86.5" rx="85.5" ry="86.5" stroke="none"/>
          <ellipse cx="85.5" cy="86.5" rx="80" ry="81" fill="none"/>
        </g>
      </g>
      <g id="Path_234" data-name="Path 234" transform="translate(176.457 315.364) rotate(-59)" fill="none">
        <path d="M83.563.408c47.468,8.927,15.911,76.26,15.911,76.26s73.3,6.373,58.506,51.34S0,131.847,0,131.847,36.095-8.518,83.563.408Z" stroke="none"/>
        <path d="M 79.20792388916016 7.999969482421875 C 52.19857788085938 7.999969482421875 23.37242126464844 77.52359771728516 9.798843383789063 126.1968688964844 C 27.16934204101563 130.6889343261719 71.01308441162109 141.0395660400391 106.1673583984375 141.0395660400391 C 124.0067977905273 141.0395660400391 146.1586151123047 138.3450622558594 150.3814544677734 125.5084762573242 C 152.9046783447266 117.8382873535156 152.3828582763672 111.4539489746094 148.7861480712891 105.9906005859375 C 139.0855102539063 91.25550842285156 109.3957977294922 85.58116149902344 98.77445220947266 84.63813018798828 L 87.37886047363281 83.62635040283203 L 92.23073577880859 73.27384948730469 C 96.76917266845703 63.59010314941406 106.784797668457 35.01603698730469 98.73483276367188 19.29812622070313 C 95.72345733642578 13.41828918457031 90.27720642089844 9.811126708984375 82.08495330810547 8.27056884765625 C 81.11848449707031 8.088851928710938 80.15967559814453 7.999969482421875 79.20792388916016 7.999969482421875 M 79.20793151855469 -1.52587890625e-05 C 80.64870452880859 -1.52587890625e-05 82.10028076171875 0.13323974609375 83.56339263916016 0.40838623046875 C 131.0318298339844 9.334884643554688 99.47463989257813 76.6688232421875 99.47463989257813 76.6688232421875 C 99.47463989257813 76.6688232421875 172.7732696533203 83.04222869873047 157.9808044433594 128.0084075927734 C 152.7532196044922 143.899169921875 131.4787139892578 149.0395812988281 106.1673736572266 149.0395812988281 C 59.85504150390625 149.0395812988281 -1.52587890625e-05 131.84716796875 -1.52587890625e-05 131.84716796875 C -1.52587890625e-05 131.84716796875 33.90484619140625 -1.52587890625e-05 79.20793151855469 -1.52587890625e-05 Z" stroke="none" fill="#333"/>
      </g>
    </g>
  </g>
</svg>
