<svg xmlns="http://www.w3.org/2000/svg" width="577.111" height="529.5" viewBox="0 0 577.111 529.5">
  <path id="Path_234" data-name="Path 234" d="M420.406,3c-50.209,0-98.4,23.373-129.85,60.308C259.1,26.373,210.914,3,160.706,3,71.831,3,2,72.831,2,161.706,2,270.78,100.109,359.655,248.715,494.7l41.841,37.8L332.4,494.411C481,359.655,579.112,270.78,579.112,161.706,579.112,72.831,509.281,3,420.406,3ZM293.441,451.7l-2.886,2.886L287.67,451.7C150.318,327.337,59.711,245.1,59.711,161.706c0-57.711,43.283-100.995,100.995-100.995,44.438,0,87.721,28.567,103.014,68.1h53.96c15-39.532,58.288-68.1,102.726-68.1,57.711,0,100.995,43.283,100.995,100.995C521.4,245.1,430.794,327.337,293.441,451.7Z" transform="translate(-2 -3)" fill="#fff"/>
</svg>
